<svg width="800" height="600" viewBox="0 0 800 600" fill="none" xmlns="http://www.w3.org/2000/svg">
  <!-- Background -->
  <rect width="800" height="600" fill="#F5F5F5"/>
  
  <!-- Header section -->
  <rect x="40" y="40" width="720" height="80" rx="8" fill="#E0E0E0"/>
  <rect x="60" y="60" width="120" height="40" rx="4" fill="#D0D0D0"/>
  <rect x="650" y="60" width="80" height="40" rx="4" fill="#D0D0D0"/>
  <rect x="540" y="60" width="80" height="40" rx="4" fill="#D0D0D0"/>
  
  <!-- Hero section -->
  <rect x="40" y="160" width="720" height="200" rx="8" fill="#E8E8E8"/>
  <rect x="100" y="200" width="600" height="40" rx="4" fill="#D8D8D8"/>
  <rect x="100" y="260" width="400" height="30" rx="4" fill="#D8D8D8"/>
  <rect x="100" y="310" width="150" height="50" rx="4" fill="#C0C0C0"/>
  
  <!-- Content sections -->
  <rect x="40" y="400" width="340" height="150" rx="8" fill="#E8E8E8"/>
  <rect x="60" y="420" width="300" height="20" rx="4" fill="#D8D8D8"/>
  <rect x="60" y="460" width="280" height="16" rx="4" fill="#D0D0D0"/>
  <rect x="60" y="485" width="250" height="16" rx="4" fill="#D0D0D0"/>
  <rect x="60" y="510" width="200" height="16" rx="4" fill="#D0D0D0"/>
  
  <rect x="420" y="400" width="340" height="150" rx="8" fill="#E8E8E8"/>
  <rect x="440" y="420" width="300" height="20" rx="4" fill="#D8D8D8"/>
  <rect x="440" y="460" width="280" height="16" rx="4" fill="#D0D0D0"/>
  <rect x="440" y="485" width="250" height="16" rx="4" fill="#D0D0D0"/>
  <rect x="440" y="510" width="200" height="16" rx="4" fill="#D0D0D0"/>
</svg>

