<svg xmlns="http://www.w3.org/2000/svg" viewBox="0 0 64 64" fill="none" stroke="#111" stroke-width="2">
  <!-- Павутина - темніша та видиміша -->
  <circle cx="32" cy="32" r="22" fill="none" stroke="#64748b" stroke-width="1.8" opacity="0.6"/>
  <line x1="32" y1="10" x2="32" y2="54" stroke="#64748b" stroke-width="1.2" opacity="0.5"/>
  <line x1="10" y1="32" x2="54" y2="32" stroke="#64748b" stroke-width="1.2" opacity="0.5"/>
  <line x1="18.28" y1="18.28" x2="45.72" y2="45.72" stroke="#64748b" stroke-width="1.2" opacity="0.5"/>
  <line x1="45.72" y1="18.28" x2="18.28" y2="45.72" stroke="#64748b" stroke-width="1.2" opacity="0.5"/>
  <circle cx="32" cy="32" r="15" fill="none" stroke="#64748b" stroke-width="1" opacity="0.45"/>
  <circle cx="32" cy="32" r="8" fill="none" stroke="#64748b" stroke-width="1" opacity="0.4"/>
  
  <!-- Тіло павука -->
  <circle cx="32" cy="28" r="6" fill="#111"/>
  <!-- Очки -->
  <circle cx="28" cy="26" r="3" fill="#22c55e" stroke="#22c55e" stroke-width="1.5"/>
  <circle cx="36" cy="26" r="3" fill="#22c55e" stroke="#22c55e" stroke-width="1.5"/>
  <path d="M25 26 L31 26" stroke="#111" stroke-width="1.5" stroke-linecap="round"/>
  <path d="M33 26 L39 26" stroke="#111" stroke-width="1.5" stroke-linecap="round"/>
  <!-- Тіло та лапки -->
  <path d="M16 18 L26 24"/>
  <path d="M48 18 L38 24"/>
  <path d="M12 30 H24"/>
  <path d="M40 30 H52"/>
  <path d="M18 42 L26 34"/>
  <path d="M46 42 L38 34"/>
  <path d="M32 34 V52"/>
  <!-- Кліки на лапках -->
  <circle cx="16" cy="18" r="1.5" fill="#111"/>
  <circle cx="48" cy="18" r="1.5" fill="#111"/>
  <circle cx="12" cy="30" r="1.5" fill="#111"/>
  <circle cx="52" cy="30" r="1.5" fill="#111"/>
  <circle cx="18" cy="42" r="1.5" fill="#111"/>
  <circle cx="46" cy="42" r="1.5" fill="#111"/>
  <circle cx="32" cy="52" r="1.5" fill="#111"/>
  <circle cx="26" cy="24" r="1.2" fill="#111"/>
  <circle cx="38" cy="24" r="1.2" fill="#111"/>
  <circle cx="24" cy="30" r="1.2" fill="#111"/>
  <circle cx="40" cy="30" r="1.2" fill="#111"/>
  <circle cx="26" cy="34" r="1.2" fill="#111"/>
  <circle cx="38" cy="34" r="1.2" fill="#111"/>
  <circle cx="32" cy="40" r="1.2" fill="#111"/>
  <circle cx="32" cy="34" r="1.2" fill="#111"/>
</svg>
